#N canvas 159 52 1238 749 12;
#N canvas 0 50 450 250 (subpatch) 0;
#X array channel1 1.1778e+07 float 2;
#X coords 0 1 1.1778e+07 -1 200 140 1;
#X restore 653 33 graph;
#X obj 240 281 soundfiler;
#X msg 240 233 read -resize night.wav channel1;
#X obj 464 601 *~;
#X obj 419 601 *~;
#X obj 427 664 dac~;
#X floatatom 482 560 5 0 0 0 - - - 0;
#X obj 419 519 tabplay~ channel1;
#X obj 419 356 bng 19 250 50 0 empty empty empty 0 -10 0 12 #fcfcfc #000000 #000000;
#X msg 526 391 stop;
#X obj 240 186 receive collision;
#X connect 2 0 1 0;
#X connect 3 0 5 1;
#X connect 4 0 5 0;
#X connect 6 0 3 1;
#X connect 6 0 4 1;
#X connect 7 0 4 0;
#X connect 8 0 7 0;
#X connect 9 0 7 0;
#X connect 10 0 2 0;
